<svg width="161" height="160" viewBox="0 0 161 160" fill="none" xmlns="http://www.w3.org/2000/svg">
<path d="M161 80C161 91.8811 158.405 103.168 153.746 113.308C141.119 140.865 113.292 160 81 160C48.7081 160 20.8811 140.865 8.25405 113.308C3.59459 103.168 1 91.8811 1 80C1 35.8162 36.8162 0 81 0C125.184 0 161 35.8162 161 80Z" fill="#F4F7FC"/>
<mask id="mask0_1556_284" style="mask-type:alpha" maskUnits="userSpaceOnUse" x="0" y="0" width="160" height="160">
<path d="M160 80C160 91.8811 157.405 103.168 152.746 113.308C140.119 140.865 112.292 160 80 160C47.7081 160 19.8811 140.865 7.25405 113.308C2.59459 103.168 0 91.8811 0 80C0 35.8162 35.8162 0 80 0C124.184 0 160 35.8162 160 80Z" fill="#F4F7FC"/>
</mask>
<g mask="url(#mask0_1556_284)">
<g clip-path="url(#clip0_1556_284)">
<path d="M90.7146 85.58C89.4178 84.2834 87.315 84.2834 86.0182 85.5802L78.548 93.0505L67.9498 82.4523L75.42 74.9818C76.717 73.6848 76.717 71.5819 75.42 70.2852C74.1232 68.9881 72.0202 68.9881 70.7234 70.2852L63.2531 77.7556L57.2801 71.7826C55.9833 70.4855 53.8802 70.4855 52.5835 71.7826L39.3741 84.992C30.169 94.1968 29.5936 108.814 37.6481 118.695C37.5403 118.779 37.4351 118.868 37.3359 118.967L21.9731 134.331C20.6761 135.628 20.6761 137.731 21.9731 139.027C22.6217 139.676 23.4715 140 24.3213 140C25.1712 140 26.0213 139.676 26.6695 139.027L42.0326 123.664C42.1317 123.565 42.2208 123.46 42.3047 123.352C46.916 127.111 52.5586 128.99 58.2012 128.99C64.65 128.99 71.0988 126.535 76.0081 121.626L89.2174 108.417C90.5145 107.12 90.5145 105.017 89.2174 103.72L83.2444 97.7469L90.7146 90.2766C92.0117 88.9798 92.0117 86.8768 90.7146 85.58ZM67.9498 109.631C67.5174 110.063 66.9509 110.28 66.3842 110.28C65.8174 110.28 65.2509 110.063 64.8185 109.631L51.0392 95.8519C50.1745 94.9873 50.1745 93.5852 51.0392 92.7206C51.904 91.8563 53.3056 91.8563 54.1704 92.7206L67.9498 106.5C68.8144 107.365 68.8144 108.767 67.9498 109.631Z" fill="url(#paint0_linear_1556_284)"/>
<path d="M140.027 25.6695C141.325 24.3727 141.325 22.2699 140.027 20.9729C138.731 19.6758 136.628 19.6758 135.331 20.9729L119.968 36.3357C119.869 36.4346 119.78 36.5396 119.696 36.6474C115.217 32.9881 109.661 30.998 103.799 30.998C97.0726 30.998 90.7487 33.6176 85.9923 38.3741L72.783 51.5834C71.4859 52.8805 71.4859 54.983 72.783 56.2801L104.72 88.2172C105.343 88.8402 106.188 89.1898 107.069 89.1898C107.949 89.1898 108.794 88.8399 109.417 88.2172L122.626 75.0078C127.382 70.2514 130.002 63.9275 130.002 57.2009C130.002 51.339 128.012 45.7834 124.352 41.3037C124.46 41.2198 124.565 41.131 124.664 41.0321L140.027 25.6695ZM110.2 67.5C109.767 67.9324 109.201 68.1485 108.634 68.1485C108.067 68.1485 107.501 67.9324 107.069 67.5L93.2894 53.7208C92.4247 52.8562 92.4247 51.4542 93.2894 50.5896C94.1542 49.725 95.5558 49.725 96.4206 50.5896L110.2 64.3687C111.064 65.2333 111.064 66.6356 110.2 67.5Z" fill="url(#paint1_linear_1556_284)"/>
<path d="M53.2226 71.394C54.3941 70.2224 56.2936 70.2224 57.4652 71.3939L89.6087 103.538C90.7803 104.709 90.7803 106.609 89.6087 107.78L86.8158 110.573L50.4296 74.1869L53.2226 71.394Z" fill="url(#paint2_linear_1556_284)"/>
<path d="M70.5946 70.2339C71.9256 68.9029 74.0836 68.9029 75.4146 70.2339C76.7456 71.5649 76.7456 73.7229 75.4146 75.0539L73.8201 76.6484L69.0001 71.8284L70.5946 70.2339Z" fill="#C4C4C4"/>
</g>
<g clip-path="url(#clip1_1556_284)">
<path d="M90.7146 85.58C89.4178 84.2834 87.315 84.2834 86.0182 85.5802L78.548 93.0505L67.9498 82.4523L75.42 74.9818C76.717 73.6848 76.717 71.5819 75.42 70.2852C74.1232 68.9881 72.0202 68.9881 70.7234 70.2852L63.2531 77.7556L57.2801 71.7826C55.9833 70.4855 53.8802 70.4855 52.5835 71.7826L39.3741 84.992C30.169 94.1968 29.5936 108.814 37.6481 118.695C37.5403 118.779 37.4351 118.868 37.3359 118.967L21.9731 134.331C20.6761 135.628 20.6761 137.731 21.9731 139.027C22.6217 139.676 23.4715 140 24.3213 140C25.1712 140 26.0213 139.676 26.6695 139.027L42.0326 123.664C42.1317 123.565 42.2208 123.46 42.3047 123.352C46.916 127.111 52.5586 128.99 58.2012 128.99C64.65 128.99 71.0988 126.535 76.0081 121.626L89.2174 108.417C90.5145 107.12 90.5145 105.017 89.2174 103.72L83.2444 97.7469L90.7146 90.2766C92.0117 88.9798 92.0117 86.8768 90.7146 85.58ZM67.9498 109.631C67.5174 110.063 66.9509 110.28 66.3842 110.28C65.8174 110.28 65.2509 110.063 64.8185 109.631L51.0392 95.8519C50.1745 94.9873 50.1745 93.5852 51.0392 92.7206C51.904 91.8563 53.3056 91.8563 54.1704 92.7206L67.9498 106.5C68.8144 107.365 68.8144 108.767 67.9498 109.631Z" fill="url(#paint3_linear_1556_284)"/>
<path d="M140.027 25.6695C141.325 24.3727 141.325 22.2699 140.027 20.9729C138.731 19.6758 136.628 19.6758 135.331 20.9729L119.968 36.3357C119.869 36.4346 119.78 36.5396 119.696 36.6474C115.217 32.9881 109.661 30.998 103.799 30.998C97.0726 30.998 90.7487 33.6176 85.9923 38.3741L72.783 51.5834C71.4859 52.8805 71.4859 54.983 72.783 56.2801L104.72 88.2172C105.343 88.8402 106.188 89.1898 107.069 89.1898C107.949 89.1898 108.794 88.8399 109.417 88.2172L122.626 75.0078C127.382 70.2514 130.002 63.9275 130.002 57.2009C130.002 51.339 128.012 45.7834 124.352 41.3037C124.46 41.2198 124.565 41.131 124.664 41.0321L140.027 25.6695ZM110.2 67.5C109.767 67.9324 109.201 68.1485 108.634 68.1485C108.067 68.1485 107.501 67.9324 107.069 67.5L93.2894 53.7208C92.4247 52.8562 92.4247 51.4542 93.2894 50.5896C94.1542 49.725 95.5558 49.725 96.4206 50.5896L110.2 64.3687C111.064 65.2333 111.064 66.6356 110.2 67.5Z" fill="url(#paint4_linear_1556_284)"/>
<path d="M53.2224 71.394C54.394 70.2225 56.2935 70.2225 57.4651 71.394L89.6086 103.538C90.7802 104.709 90.7802 106.609 89.6086 107.78L86.8157 110.573L50.4295 74.187L53.2224 71.394Z" fill="url(#paint5_linear_1556_284)"/>
<path d="M109.257 88.4297C108.085 89.6013 106.186 89.6013 105.014 88.4297L72.6808 56.0961C71.5092 54.9245 71.5092 53.025 72.6808 51.8535L75.7243 48.81L112.301 85.3863L109.257 88.4297Z" fill="url(#paint6_linear_1556_284)"/>
<path d="M70.5949 70.234C71.9259 68.903 74.0839 68.903 75.4149 70.234C76.7459 71.565 76.7459 73.7229 75.4149 75.054L73.8204 76.6485L69.0004 71.8285L70.5949 70.234Z" fill="url(#paint7_linear_1556_284)"/>
<path d="M86.025 85.5469C87.3267 84.2452 89.4373 84.2452 90.739 85.5469C92.0408 86.8486 92.0408 88.9592 90.739 90.2609L89 92L84.2859 87.286L86.025 85.5469Z" fill="url(#paint8_linear_1556_284)"/>
</g>
<path fill-rule="evenodd" clip-rule="evenodd" d="M112.303 94.8545C111.481 94.9525 110.893 95.6988 110.991 96.5214C111.089 97.344 111.835 97.9314 112.658 97.8334L116.63 97.3602C117.453 97.2622 118.04 96.5159 117.942 95.6933C117.844 94.8707 117.098 94.2833 116.275 94.3813L112.303 94.8545ZM95.8548 111.303C95.9528 110.48 96.6991 109.893 97.5217 109.991C98.3443 110.089 98.9317 110.835 98.8337 111.658L98.3605 115.63C98.2625 116.452 97.5162 117.04 96.6936 116.942C95.871 116.844 95.2836 116.097 95.3816 115.275L95.8548 111.303ZM109.374 103.566C109.655 102.787 110.514 102.382 111.293 102.663L115.057 104.019C115.836 104.299 116.24 105.159 115.96 105.938C115.679 106.718 114.82 107.122 114.04 106.841L110.277 105.486C109.497 105.205 109.093 104.346 109.374 103.566ZM103.663 110.293C103.383 109.514 103.787 108.654 104.566 108.374C105.346 108.093 106.205 108.497 106.486 109.277L107.842 113.04C108.122 113.819 107.718 114.679 106.939 114.959C106.159 115.24 105.3 114.836 105.019 114.057L103.663 110.293Z" fill="#CCD0DB"/>
<path fill-rule="evenodd" clip-rule="evenodd" d="M51.0987 64.547C51.9213 64.449 52.5087 63.7027 52.4107 62.8801C52.3127 62.0575 51.5664 61.4701 50.7438 61.5681L46.7719 62.0413C45.9493 62.1393 45.3619 62.8856 45.4599 63.7082C45.5579 64.5308 46.3042 65.1182 47.1268 65.0202L51.0987 64.547ZM67.5471 48.0986C67.4491 48.9212 66.7028 49.5086 65.8802 49.4106C65.0576 49.3126 64.4702 48.5663 64.5682 47.7437L65.0413 43.7718C65.1393 42.9492 65.8857 42.3618 66.7083 42.4598C67.5309 42.5578 68.1183 43.3041 68.0203 44.1267L67.5471 48.0986ZM54.028 55.8354C53.7472 56.6148 52.8878 57.019 52.1084 56.7383L48.3451 55.3827C47.5657 55.102 47.1614 54.2426 47.4422 53.4632C47.7229 52.6838 48.5823 52.2795 49.3617 52.5603L53.1251 53.9158C53.9045 54.1965 54.3087 55.056 54.028 55.8354ZM59.7384 49.1082C60.0191 49.8877 59.6149 50.7471 58.8355 51.0278C58.0561 51.3086 57.1966 50.9043 56.9159 50.1249L55.5603 46.3616C55.2796 45.5822 55.6839 44.7228 56.4633 44.442C57.2427 44.1613 58.1021 44.5655 58.3828 45.3449L59.7384 49.1082Z" fill="#CACEDA"/>
</g>
<defs>
<linearGradient id="paint0_linear_1556_284" x1="46.2245" y1="87.7021" x2="96.5657" y2="149.087" gradientUnits="userSpaceOnUse">
<stop stop-color="#E1E5EF"/>
<stop offset="1" stop-color="#B8BDC9"/>
</linearGradient>
<linearGradient id="paint1_linear_1556_284" x1="96.5001" y1="38.0001" x2="145.775" y2="98.0847" gradientUnits="userSpaceOnUse">
<stop stop-color="#E1E5EF"/>
<stop offset="1" stop-color="#B8BDC9"/>
</linearGradient>
<linearGradient id="paint2_linear_1556_284" x1="42.0001" y1="72.4999" x2="34.3488" y2="91.8401" gradientUnits="userSpaceOnUse">
<stop stop-color="#B0B8C7"/>
<stop offset="1" stop-color="#757982"/>
</linearGradient>
<linearGradient id="paint3_linear_1556_284" x1="45.9999" y1="78.0001" x2="96.1338" y2="130.016" gradientUnits="userSpaceOnUse">
<stop stop-color="#E1E5EF"/>
<stop offset="1" stop-color="#B8BDC9"/>
</linearGradient>
<linearGradient id="paint4_linear_1556_284" x1="96.5001" y1="38.0001" x2="145.775" y2="98.0847" gradientUnits="userSpaceOnUse">
<stop stop-color="#E1E5EF"/>
<stop offset="1" stop-color="#B8BDC9"/>
</linearGradient>
<linearGradient id="paint5_linear_1556_284" x1="42" y1="72.5" x2="34.3486" y2="91.8401" gradientUnits="userSpaceOnUse">
<stop stop-color="#CACFD8"/>
<stop offset="1" stop-color="#9DA2AA"/>
</linearGradient>
<linearGradient id="paint6_linear_1556_284" x1="79.5" y1="59.5" x2="72.0802" y2="76.1794" gradientUnits="userSpaceOnUse">
<stop stop-color="#C2C7D2"/>
<stop offset="1" stop-color="#ADB0B6"/>
</linearGradient>
<linearGradient id="paint7_linear_1556_284" x1="69" y1="68" x2="75" y2="77" gradientUnits="userSpaceOnUse">
<stop stop-color="#D4DAE4"/>
<stop offset="1" stop-color="#B0B5BF"/>
</linearGradient>
<linearGradient id="paint8_linear_1556_284" x1="84.3715" y1="83.4558" x2="90.3235" y2="92.2226" gradientUnits="userSpaceOnUse">
<stop stop-color="#D4DAE4"/>
<stop offset="1" stop-color="#B0B5BF"/>
</linearGradient>
<clipPath id="clip0_1556_284">
<rect width="120" height="120" fill="white" transform="translate(21 20)"/>
</clipPath>
<clipPath id="clip1_1556_284">
<rect width="120" height="120" fill="white" transform="translate(21 20)"/>
</clipPath>
</defs>
</svg>
